<svg width="360" height="131" viewBox="0 0 360 131" fill="none" xmlns="http://www.w3.org/2000/svg">
<g filter="url(#filter0_d_1_8)">
<path d="M4 48C4 31.1984 4 22.7976 7.2698 16.3803C10.146 10.7354 14.7354 6.14601 20.3803 3.2698C26.7976 0 35.1984 0 52 0H308C324.802 0 333.202 0 339.62 3.2698C345.265 6.14601 349.854 10.7354 352.73 16.3803C356 22.7976 356 31.1984 356 48V73C356 89.8016 356 98.2024 352.73 104.62C349.854 110.265 345.265 114.854 339.62 117.73C333.202 121 324.802 121 308 121H52C35.1984 121 26.7976 121 20.3803 117.73C14.7354 114.854 10.146 110.265 7.2698 104.62C4 98.2024 4 89.8016 4 73V48Z" fill="#F53816"/>
</g>
<defs>
<filter id="filter0_d_1_8" x="0" y="0" width="360" height="131" filterUnits="userSpaceOnUse" color-interpolation-filters="sRGB">
<feFlood flood-opacity="0" result="BackgroundImageFix"/>
<feColorMatrix in="SourceAlpha" type="matrix" values="0 0 0 0 0 0 0 0 0 0 0 0 0 0 0 0 0 0 127 0" result="hardAlpha"/>
<feOffset dy="6"/>
<feGaussianBlur stdDeviation="2"/>
<feComposite in2="hardAlpha" operator="out"/>
<feColorMatrix type="matrix" values="0 0 0 0 0 0 0 0 0 0 0 0 0 0 0 0 0 0 0.25 0"/>
<feBlend mode="normal" in2="BackgroundImageFix" result="effect1_dropShadow_1_8"/>
<feBlend mode="normal" in="SourceGraphic" in2="effect1_dropShadow_1_8" result="shape"/>
</filter>
</defs>
</svg>
